<?xml version="1.0" encoding="utf-8"?>
<!-- Generator: Adobe Illustrator 19.0.0, SVG Export Plug-In . SVG Version: 6.00 Build 0)  -->
<svg version="1.1" id="Layer_1" xmlns="http://www.w3.org/2000/svg" xmlns:xlink="http://www.w3.org/1999/xlink" x="0px" y="0px"
	 viewBox="0 0 250.7 112.3" style="enable-background:new 0 0 250.7 112.3;" xml:space="preserve">
<style type="text/css">
	.st0{fill:#FFFFFF;stroke:#FFFFFF;stroke-width:15;stroke-miterlimit:10;}
	.st1{fill:#594A42;}
	.st2{fill:#027181;}
	.st3{fill:#76CED9;}
	.st4{fill:#779B3F;}
	.st5{fill:#EBEBEC;}
	.st6{fill:#93D6DF;}
	.st7{fill:#81A244;}
	.st8{fill:#FFFFFF;}
	.st9{fill:#5FB8C7;}
	.st10{fill:#65873B;}
	.st11{fill:#D6D8D8;}
</style>
<g id="XMLID_44_">
	<g id="XMLID_88_">
		<path id="XMLID_92_" class="st0" d="M229.1,8.8h-4H30.6h-9c-7.2,0-13.1,5.9-13.1,13.1v69.2c0,7.2,5.9,13.1,13.1,13.1h9H225h4
			c7.2,0,13.1-5.9,13.1-13.1V21.9C242.2,14.7,236.3,8.8,229.1,8.8z"/>
	</g>
	<g id="XMLID_9_">
		<g id="XMLID_45_">
			<path id="XMLID_58_" class="st1" d="M229.1,8.8h-4H30.6h-9c-7.2,0-13.1,5.9-13.1,13.1v69.2c0,7.2,5.9,13.1,13.1,13.1h9H225h4
				c7.2,0,13.1-5.9,13.1-13.1V21.9C242.2,14.7,236.3,8.8,229.1,8.8z M12.2,91.1V21.9c0-5.2,4.2-9.4,9.4-9.4h7.1v88h-7.1
				C16.4,100.5,12.2,96.3,12.2,91.1z M32.4,100.5v-88h190.7v88H32.4z M238.5,91.1c0,5.2-4.2,9.4-9.4,9.4h-2.2v-88h2.2
				c5.2,0,9.4,4.2,9.4,9.4V91.1z"/>
			<circle id="XMLID_61_" class="st1" cx="232.2" cy="56.1" r="3.4"/>
			<ellipse id="XMLID_62_" class="st1" cx="20.1" cy="40.7" rx="1.7" ry="1.9"/>
			<path id="XMLID_64_" class="st1" d="M20.1,51.7c-1,0-1.9,0.8-1.9,1.9v19.8c0,1,0.8,1.9,1.9,1.9c1,0,1.9-0.8,1.9-1.9V53.5
				C22,52.5,21.2,51.7,20.1,51.7z"/>
		</g>
		<g id="XMLID_2_">
			<g id="XMLID_3_">
				<path id="XMLID_4_" class="st2" d="M58.6,28.5c8.6,0,12.4,5.7,12.4,13.9v28.2c0,8.2-3.8,13.9-12.4,13.9H46.3v-56H58.6z
					 M58.5,81.2c6.2,0,8.8-4.2,8.8-10.4V42.3c0-6.2-2.6-10.4-8.8-10.4H50v49.3H58.5z"/>
				<path id="XMLID_12_" class="st2" d="M80.8,28.5v56h-3.7v-56H80.8z"/>
				<path id="XMLID_14_" class="st2" d="M111.1,42.2v4.2h-3.5V42c0-6-2.3-10.6-8.5-10.6c-6.2,0-8.5,4.6-8.5,10.6v29.1
					c0,6,2.3,10.5,8.5,10.5c6.2,0,8.5-4.5,8.5-10.5V59h-7.4v-3.4h11v15.2c0,8.1-3.5,14.2-12.1,14.2c-8.6,0-12.1-6.1-12.1-14.2V42.2
					C86.9,34.1,90.4,28,99,28C107.6,28,111.1,34.1,111.1,42.2z"/>
				<path id="XMLID_16_" class="st2" d="M120.9,28.5v56h-3.7v-56H120.9z"/>
				<path id="XMLID_18_" class="st2" d="M137,84.5V31.9h-11.4v-3.4H152v3.4h-11.4v52.6H137z"/>
			</g>
			<g id="XMLID_6_">
				<g id="XMLID_37_">
					<g id="XMLID_63_">
						<circle id="XMLID_36_" class="st3" cx="179.9" cy="56.8" r="25.4"/>
					</g>
					<path id="XMLID_35_" class="st4" d="M170.6,58.1c3.8,2.8,6.2,3.2,4.4,7.1c-1.8,3.9-0.7,7.1-3.5,9c-2.8,2-4.9,0.6-4-2
						c0.9-2.6-6.3-9.5-4.5-12c1.8-2.6,2.3-4.1,1-6.2c-1.2-2.1-2.1-2.9-4.1-5.7c-2-2.8-1.5-5.5-0.4-6.8c1.1-1.3,1.3-3.3,3.9-1.7
						c2.6,1.6,7.2,0.7,7.2,3.3c0,2.6,0.6,3.7,2,2.1c1.4-1.6,1.9-4.2,3.6-1.7c1.7,2.5,3.7,5.1,0.7,6.1c-3,1-5.8-0.3-6.3,1.9
						c-0.4,2.2-0.8,3.5-1.2,1.5c-0.4-2-1.9-0.9-2.1,0.6c-0.2,1.5-0.5,2.3,1.2,4.1C169.1,58.3,170,57.8,170.6,58.1z"/>
					<path id="XMLID_34_" class="st4" d="M187.7,54.1c-3.4,0.2-3.7,0.4-2.9,4.6c0.8,4.2,4.2,3,5,4.8c0.8,1.8-1.2,10.9,2.5,8.3
						c3.7-2.6,6.7-7.3,6.1-9.9c-0.6-2.6,2.4-6.7,0.1-6.1c-2.4,0.6,1.2-5.7,2-4.1c0.8,1.6,2.8,3.7,3.3,0.7s-3.5-10.8-3.5-10.8
						s-2.5-0.1-4,2c-1.4,2.1-2.8,2.6-5,2.8c-2.2,0.2-4.1-0.6-4.9,0.5c-0.7,1.1-4,3.6-2,3.9c1.9,0.3,2.1,1.7,4.3,0s3.7-1.2,3.5,0
						C192,51.9,192.2,53.8,187.7,54.1z"/>
					<path id="XMLID_57_" class="st5" d="M179.9,31.3c-4.9,0-9.5,1.4-13.3,3.8c1.6,1.4,3.6,2.2,4.8,1.9c1.6-0.3,4.3,0.2,5,1
						c0.8,0.8,1.5,0.7,1.9-0.3c0.5-1.1,3.3-1.7,4.3-0.6c1.1,1.1,4.3,0.9,5.7,0c1.4-0.8,3.2-1.8,5.2-1.8
						C189.6,32.8,184.9,31.3,179.9,31.3z M180.9,37.9c-0.9-0.4-3.8,1.2-2.2,1.4C180.4,39.6,182.2,38.4,180.9,37.9z M172.9,37.6
						c-1.9-0.3-1.5,0.3-0.3,0.7C173.8,38.7,173.8,37.8,172.9,37.6z"/>
					<path id="XMLID_30_" class="st6" d="M175.2,35.6c-7.7,0-13.4,5.7-15.3,12.8c-1.9,7.2,4.9,5.4,9.7,1.4
						C174.5,45.8,190.3,35.6,175.2,35.6z"/>
					<path id="XMLID_29_" class="st7" d="M176.1,43.5c-1.7-2.5-2.2,0.1-3.6,1.7c-1.4,1.6-2,0.5-2-2.1c0-2.3-3.6-1.8-6.3-2.8
						c-2.1,2.2-3.6,5-4.4,8.1c1.7,2.3,2.6,3.2,3.6,4.7c1.9-0.4,4.2-1.7,6.2-3.3c1.6-1.3,4.5-3.4,7-5.5
						C176.5,44,176.3,43.8,176.1,43.5z"/>
					<path id="XMLID_51_" class="st8" d="M180.7,36.5c-0.9-0.6-2.7-1-5.5-1c-2.1,0-4.1,0.4-5.8,1.2c0.8,0.3,1.5,0.4,2,0.3
						c1.6-0.3,4.3,0.2,5,1c0.8,0.8,1.5,0.7,1.9-0.3C178.6,37.1,179.6,36.6,180.7,36.5z M180.9,37.9c-0.9-0.4-3.8,1.2-2.2,1.4
						C180.4,39.6,182.2,38.4,180.9,37.9z M172.9,37.6c-1.9-0.3-1.5,0.3-0.3,0.7C173.8,38.7,173.8,37.8,172.9,37.6z"/>
					<path id="XMLID_25_" class="st9" d="M197.7,59.2c-1.4,4.3-11.4,8.3-18.6,10.9c-5,1.8-12.4,2.1-20.6,0.5
						c4.5,7,12.4,11.6,21.3,11.6c14,0,25.4-11.4,25.4-25.4c0-5.7-1.9-11-5.1-15.3C200.2,48,198.7,56,197.7,59.2z"/>
					<path id="XMLID_24_" class="st10" d="M171.6,74.2c1.1-0.8,1.6-1.8,1.9-2.9c-1.8,0.2-3.8,0.3-5.8,0.2c0,0.3,0,0.5-0.1,0.7
						C166.6,74.9,168.8,76.2,171.6,74.2z"/>
					<g id="XMLID_46_">
						<path id="XMLID_23_" class="st10" d="M198.3,61.8c-0.6-2.5,2.3-6.5,0.3-6.1c-0.3,1.4-0.6,2.7-0.9,3.5
							c-0.7,2.3-3.9,4.5-7.7,6.4c0,3.2-0.6,8.1,2.3,6.1C196,69.2,199,64.5,198.3,61.8z"/>
						<path id="XMLID_22_" class="st10" d="M200.4,51.6c0.8,1.6,2.8,3.7,3.3,0.7c0.5-3-3.5-10.8-3.5-10.8c0,3.3-0.4,7-0.9,10.3
							C199.8,51.3,200.2,51.2,200.4,51.6z"/>
					</g>
					<path id="XMLID_21_" class="st11" d="M179.9,82.2c4.7,0,9.1-1.3,12.9-3.5c-1-0.1-1.9-0.3-2.1-0.5c-0.7-0.7-3.1-2-5.4-0.6
						c-2.4,1.4-5.4,1.1-6.4,0.8c-1-0.2-2-2-2.3-0.8c-0.4,1.1-2,1.5-3.9,0.6c-1.5-0.7-4.7-0.3-6.1,0.3
						C170.4,80.8,175,82.2,179.9,82.2z"/>
					<path id="XMLID_8_" class="st4" d="M192.8,40.7c-2.1,2.3-3.5,4.4-1.8,4c1.8-0.4,3.6-1.5,4.2-2.7
						C195.9,40.9,194.2,39.2,192.8,40.7z"/>
				</g>
				<g id="XMLID_7_">
					<path id="XMLID_220_" class="st2" d="M179.8,32.1c13.5,0,24.4,10.9,24.4,24.4s-10.9,24.4-24.4,24.4S155.4,70,155.4,56.5
						S166.4,32.1,179.8,32.1 M179.8,28c-15.7,0-28.5,12.8-28.5,28.5c0,15.7,12.8,28.5,28.5,28.5c15.7,0,28.5-12.8,28.5-28.5
						C208.3,40.8,195.6,28,179.8,28L179.8,28z"/>
				</g>
			</g>
		</g>
	</g>
</g>
</svg>
