<?xml version="1.0" encoding="utf-8"?>
<!-- Generator: Adobe Illustrator 19.0.0, SVG Export Plug-In . SVG Version: 6.00 Build 0)  -->
<svg version="1.1" id="Layer_1" xmlns="http://www.w3.org/2000/svg" xmlns:xlink="http://www.w3.org/1999/xlink" x="0px" y="0px"
	 viewBox="375 28.7 305 124.3" style="enable-background:new 375 28.7 305 124.3;" xml:space="preserve">
<style type="text/css">
	.st0{fill:#FFFFFF;stroke:#FFFFFF;stroke-width:15;stroke-miterlimit:10;}
	.st1{fill:#594A42;}
	.st2{fill:#027181;}
	.st3{fill:#76CED9;}
	.st4{fill:#779B3F;}
	.st5{fill:#EBEBEC;}
	.st6{fill:#93D6DF;}
	.st7{fill:#81A244;}
	.st8{fill:#FFFFFF;}
	.st9{fill:#5FB8C7;}
	.st10{fill:#65873B;}
	.st11{fill:#D6D8D8;}
</style>
<g id="XMLID_88_">
	<path id="XMLID_92_" class="st0" d="M635.1,44.4h-4H436.5h-9c-7.2,0-13.1,5.9-13.1,13.1v69.2c0,7.2,5.9,13.1,13.1,13.1h9H631h4
		c7.2,0,13.1-5.9,13.1-13.1V57.5C648.2,50.3,642.3,44.4,635.1,44.4z"/>
</g>
<g id="XMLID_9_">
	<g id="XMLID_45_">
		<path id="XMLID_58_" class="st1" d="M635.1,44.4h-4H436.5h-9c-7.2,0-13.1,5.9-13.1,13.1v69.2c0,7.2,5.9,13.1,13.1,13.1h9H631h4
			c7.2,0,13.1-5.9,13.1-13.1V57.5C648.2,50.3,642.3,44.4,635.1,44.4z M418.2,126.7V57.5c0-5.2,4.2-9.4,9.4-9.4h7.1v88h-7.1
			C422.4,136.1,418.2,131.9,418.2,126.7z M438.4,136.1v-88h190.7v88H438.4z M644.4,126.7c0,5.2-4.2,9.4-9.4,9.4h-2.2v-88h2.2
			c5.2,0,9.4,4.2,9.4,9.4V126.7z"/>
		<circle id="XMLID_61_" class="st1" cx="638.2" cy="91.6" r="3.4"/>
		<ellipse id="XMLID_62_" class="st1" cx="426.1" cy="76.3" rx="1.7" ry="1.9"/>
		<path id="XMLID_64_" class="st1" d="M426.1,87.3c-1,0-1.9,0.8-1.9,1.9V109c0,1,0.8,1.9,1.9,1.9c1,0,1.9-0.8,1.9-1.9V89.1
			C428,88.1,427.1,87.3,426.1,87.3z"/>
	</g>
	<g id="XMLID_2_">
		<g id="XMLID_3_">
			<path id="XMLID_4_" class="st2" d="M464.6,64.1c8.6,0,12.4,5.7,12.4,13.9v28.2c0,8.2-3.8,13.9-12.4,13.9h-12.3v-56H464.6z
				 M464.5,116.7c6.2,0,8.8-4.2,8.8-10.4V77.8c0-6.2-2.6-10.4-8.8-10.4h-8.6v49.3H464.5z"/>
			<path id="XMLID_12_" class="st2" d="M486.7,64.1v56H483v-56H486.7z"/>
			<path id="XMLID_14_" class="st2" d="M517,77.8V82h-3.5v-4.4c0-6-2.3-10.6-8.5-10.6c-6.2,0-8.5,4.6-8.5,10.6v29.1
				c0,6,2.3,10.5,8.5,10.5c6.2,0,8.5-4.5,8.5-10.5V94.6h-7.4v-3.4h11v15.2c0,8.1-3.5,14.2-12.1,14.2s-12.1-6.1-12.1-14.2V77.8
				c0-8.1,3.5-14.2,12.1-14.2C513.5,63.6,517,69.7,517,77.8z"/>
			<path id="XMLID_16_" class="st2" d="M526.9,64.1v56h-3.7v-56H526.9z"/>
			<path id="XMLID_18_" class="st2" d="M543,120.1V67.5h-11.4v-3.4h26.5v3.4h-11.4v52.6H543z"/>
		</g>
		<g id="XMLID_6_">
			<g id="XMLID_37_">
				<g id="XMLID_63_">
					<circle id="XMLID_36_" class="st3" cx="585.9" cy="92.3" r="25.4"/>
				</g>
				<path id="XMLID_35_" class="st4" d="M576.5,93.7c3.8,2.8,6.2,3.2,4.4,7.1c-1.8,3.9-0.7,7.1-3.5,9c-2.8,2-4.9,0.6-4-2
					c0.9-2.6-6.3-9.5-4.5-12c1.8-2.6,2.3-4.1,1-6.2c-1.2-2.1-2.1-2.9-4.1-5.7c-2-2.8-1.5-5.5-0.4-6.8c1.1-1.3,1.3-3.3,3.9-1.7
					c2.6,1.6,7.2,0.7,7.2,3.3c0,2.6,0.6,3.7,2,2.1c1.4-1.6,1.9-4.2,3.6-1.7s3.7,5.1,0.7,6.1s-5.8-0.3-6.3,1.9
					c-0.4,2.2-0.8,3.5-1.2,1.5c-0.4-2-1.9-0.9-2.1,0.6s-0.5,2.3,1.2,4.1C575.1,93.9,576,93.3,576.5,93.7z"/>
				<path id="XMLID_34_" class="st4" d="M593.7,89.6c-3.4,0.2-3.7,0.4-2.9,4.6c0.8,4.2,4.2,3,5,4.8s-1.2,10.9,2.5,8.3
					s6.7-7.3,6.1-9.9c-0.6-2.6,2.4-6.7,0.1-6.1c-2.4,0.6,1.2-5.7,2-4.1s2.8,3.7,3.3,0.7s-3.5-10.8-3.5-10.8s-2.5-0.1-4,2
					c-1.4,2.1-2.8,2.6-5,2.8c-2.2,0.2-4.1-0.6-4.9,0.5c-0.7,1.1-4,3.6-2,3.9c1.9,0.3,2.1,1.7,4.3,0c2.2-1.7,3.7-1.2,3.5,0
					C598,87.5,598.2,89.4,593.7,89.6z"/>
				<path id="XMLID_57_" class="st5" d="M585.9,66.9c-4.9,0-9.5,1.4-13.3,3.8c1.6,1.4,3.6,2.2,4.8,1.9c1.6-0.3,4.3,0.2,5,1
					c0.8,0.8,1.5,0.7,1.9-0.3c0.5-1.1,3.3-1.7,4.3-0.6c1.1,1.1,4.3,0.9,5.7,0c1.4-0.8,3.2-1.8,5.2-1.8
					C595.5,68.4,590.9,66.9,585.9,66.9z M586.9,73.5c-0.9-0.4-3.8,1.2-2.2,1.4C586.3,75.2,588.2,74,586.9,73.5z M578.8,73.2
					c-1.9-0.3-1.5,0.3-0.3,0.7C579.8,74.3,579.8,73.4,578.8,73.2z"/>
				<path id="XMLID_30_" class="st6" d="M581.1,71.2c-7.7,0-13.4,5.7-15.3,12.8c-1.9,7.2,4.9,5.4,9.7,1.4
					C580.5,81.4,596.3,71.2,581.1,71.2z"/>
				<path id="XMLID_29_" class="st7" d="M582.1,79.1c-1.7-2.5-2.2,0.1-3.6,1.7c-1.4,1.6-2,0.5-2-2.1c0-2.3-3.6-1.8-6.3-2.8
					c-2.1,2.2-3.6,5-4.4,8.1c1.7,2.3,2.6,3.2,3.6,4.7c1.9-0.4,4.2-1.7,6.2-3.3c1.6-1.3,4.5-3.4,7-5.5
					C582.4,79.6,582.3,79.4,582.1,79.1z"/>
				<path id="XMLID_51_" class="st8" d="M586.6,72.1c-0.9-0.6-2.7-1-5.5-1c-2.1,0-4.1,0.4-5.8,1.2c0.8,0.3,1.5,0.4,2,0.3
					c1.6-0.3,4.3,0.2,5,1c0.8,0.8,1.5,0.7,1.9-0.3C584.5,72.7,585.6,72.2,586.6,72.1z M586.9,73.5c-0.9-0.4-3.8,1.2-2.2,1.4
					C586.3,75.2,588.2,74,586.9,73.5z M578.8,73.2c-1.9-0.3-1.5,0.3-0.3,0.7C579.8,74.3,579.8,73.4,578.8,73.2z"/>
				<path id="XMLID_25_" class="st9" d="M603.7,94.8c-1.4,4.3-11.4,8.3-18.6,10.9c-5,1.8-12.4,2.1-20.6,0.5
					c4.5,7,12.4,11.6,21.3,11.6c14,0,25.4-11.4,25.4-25.4c0-5.7-1.9-11-5.1-15.3C606.2,83.6,604.7,91.6,603.7,94.8z"/>
				<path id="XMLID_24_" class="st10" d="M577.5,109.8c1.1-0.8,1.6-1.8,1.9-2.9c-1.8,0.2-3.8,0.3-5.8,0.2c0,0.3,0,0.5-0.1,0.7
					C572.6,110.5,574.8,111.8,577.5,109.8z"/>
				<g id="XMLID_46_">
					<path id="XMLID_23_" class="st10" d="M604.3,97.4c-0.6-2.5,2.3-6.5,0.3-6.1c-0.3,1.4-0.6,2.7-0.9,3.5c-0.7,2.3-3.9,4.5-7.7,6.4
						c0,3.2-0.6,8.1,2.3,6.1C601.9,104.8,605,100,604.3,97.4z"/>
					<path id="XMLID_22_" class="st10" d="M606.4,87.2c0.8,1.6,2.8,3.7,3.3,0.7s-3.5-10.8-3.5-10.8c0,3.3-0.4,7-0.9,10.3
						C605.7,86.9,606.2,86.8,606.4,87.2z"/>
				</g>
				<path id="XMLID_21_" class="st11" d="M585.9,117.8c4.7,0,9.1-1.3,12.9-3.5c-1-0.1-1.9-0.3-2.1-0.5c-0.7-0.7-3.1-2-5.4-0.6
					c-2.4,1.4-5.4,1.1-6.4,0.8c-1-0.2-2-2-2.3-0.8c-0.4,1.1-2,1.5-3.9,0.6c-1.5-0.7-4.7-0.3-6.1,0.3
					C576.4,116.4,581,117.8,585.9,117.8z"/>
				<path id="XMLID_8_" class="st4" d="M598.8,76.3c-2.1,2.3-3.5,4.4-1.8,4c1.8-0.4,3.6-1.5,4.2-2.7
					C601.8,76.4,600.1,74.8,598.8,76.3z"/>
			</g>
			<g id="XMLID_7_">
				<path id="XMLID_52_" class="st2" d="M585.8,67.7c13.5,0,24.4,10.9,24.4,24.4s-10.9,24.4-24.4,24.4s-24.4-10.9-24.4-24.4
					C561.4,78.6,572.3,67.7,585.8,67.7 M585.8,63.6c-15.7,0-28.5,12.8-28.5,28.5s12.8,28.5,28.5,28.5s28.5-12.8,28.5-28.5
					S601.5,63.6,585.8,63.6L585.8,63.6z"/>
			</g>
		</g>
	</g>
</g>
</svg>
