<?xml version="1.0" encoding="utf-8"?>
<!-- Generator: Adobe Illustrator 19.0.0, SVG Export Plug-In . SVG Version: 6.00 Build 0)  -->
<svg version="1.1" id="_x3C_Layer_x3E_" xmlns="http://www.w3.org/2000/svg" xmlns:xlink="http://www.w3.org/1999/xlink" x="0px"
	 y="0px" viewBox="0 0 360 258.3" style="enable-background:new 0 0 360 258.3;" xml:space="preserve">
<style type="text/css">
	.st0{fill:#F1B51C;}
	.st1{fill:#D1D3D4;}
	.st2{fill:#939598;}
	.st3{fill:#FFFFFF;}
	.st4{fill:#58595B;}
</style>
<g>
	<g>
		<path class="st0" d="M117.1,177.2v22.7c0,4.9-1.4,8.8-4.2,11.5c-2.8,2.7-6.8,4.1-12.1,4.1c-5.1,0-9.1-1.3-11.9-3.9
			c-2.8-2.6-4.1-6.4-4.1-11.3v-22.9h10.2v22.1c0,2.7,0.5,4.6,1.5,5.8c1,1.2,2.5,1.8,4.4,1.8c2.1,0,3.6-0.6,4.5-1.8
			c0.9-1.2,1.4-3.2,1.4-5.9v-22.1H117.1z"/>
		<path class="st0" d="M125,214.9v-37.7h10.2v29.5h14.5v8.2H125z"/>
		<path class="st0" d="M167.2,214.9h-10.2v-29.4h-9.2v-8.3h28.6v8.3h-9.2V214.9z"/>
		<path class="st0" d="M183.3,214.9v-37.7h10.2v37.7H183.3z"/>
		<path class="st0" d="M218.1,214.9l-7.7-27.2h-0.2c0.4,4.6,0.5,8.2,0.5,10.8v16.4h-9v-37.7h13.6l7.9,26.8h0.2l7.7-26.8h13.6v37.7
			h-9.4v-16.5c0-0.9,0-1.8,0-2.9c0-1,0.1-3.6,0.3-7.7h-0.2l-7.6,27.1H218.1z"/>
		<path class="st0" d="M275.1,214.9h-22.4v-37.7h22.4v8.2h-12.2v5.9h11.3v8.2h-11.3v7.1h12.2V214.9z"/>
	</g>
</g>
<path class="st0" d="M358.5,22.9c-36.5-8.4-57-0.6-85.2,19.8C258.7,53.2,238,77,223.4,100.6c22-3.7,40.6-16,46.3-20.3
	c5.7-4.3,5-2.3,0.6,2.7c-1,1.1-12.9,15.4-63.2,35.2c56.3-18.7,93.7-40.6,110.2-61.3c0,0-15.9-0.3-18-0.4c-2-0.1-2.6-0.6-0.3-2.9
	C301.3,51,326.7,21.2,358.5,22.9z"/>
<path class="st0" d="M1.5,22.9c36.5-8.4,57-0.6,85.2,19.8c14.6,10.6,35.3,34.3,49.9,57.9c-22-3.7-40.6-16-46.3-20.3
	c-5.7-4.3-5-2.3-0.6,2.7c1,1.1,12.9,15.4,63.2,35.2C96.7,99.3,59.2,77.5,42.7,56.7c0,0,15.9-0.3,18-0.4c2-0.1,2.6-0.6,0.3-2.9
	C58.7,51,33.3,21.2,1.5,22.9z"/>
<g>
	<path class="st1" d="M220.5,2H180h-40.5L97.4,38.8L180,142l82.6-103.1L220.5,2z M218.3,5.2c1.4,0,2.5,1.1,2.5,2.5s-1.1,2.5-2.5,2.5
		c-1.4,0-2.5-1.1-2.5-2.5S216.9,5.2,218.3,5.2z M141.7,5.2c1.4,0,2.5,1.1,2.5,2.5s-1.1,2.5-2.5,2.5s-2.5-1.1-2.5-2.5
		S140.3,5.2,141.7,5.2z M106,42.2c-1.4,0-2.5-1.1-2.5-2.5c0-1.4,1.1-2.5,2.5-2.5s2.5,1.1,2.5,2.5C108.5,41.1,107.4,42.2,106,42.2z
		 M180,134.4c-1.4,0-2.5-1.1-2.5-2.5c0-1.4,1.1-2.5,2.5-2.5s2.5,1.1,2.5,2.5C182.5,133.2,181.4,134.4,180,134.4z M180,124.4
		l-67.4-84.2L143.6,13h72.8l31.1,27.2L180,124.4z M254,42.2c-1.4,0-2.5-1.1-2.5-2.5c0-1.4,1.1-2.5,2.5-2.5c1.4,0,2.5,1.1,2.5,2.5
		C256.6,41.1,255.4,42.2,254,42.2z"/>
	<polygon class="st0" points="143.6,13 112.6,40.2 180,124.4 247.4,40.2 216.4,13 	"/>
</g>
<g>
	<circle class="st2" cx="180" cy="131.8" r="2.5"/>
	<circle class="st2" cx="141.7" cy="7.7" r="2.5"/>
	<path class="st2" d="M218.3,10.3c1.4,0,2.5-1.1,2.5-2.5s-1.1-2.5-2.5-2.5c-1.4,0-2.5,1.1-2.5,2.5S216.9,10.3,218.3,10.3z"/>
	<circle class="st2" cx="106" cy="39.7" r="2.5"/>
	<path class="st2" d="M251.5,39.7c0,1.4,1.1,2.5,2.5,2.5c1.4,0,2.5-1.1,2.5-2.5c0-1.4-1.1-2.5-2.5-2.5
		C252.6,37.1,251.5,38.3,251.5,39.7z"/>
</g>
<path class="st3" d="M179.3,59.6l18.1,35.8l14-17.5l-17.5-31.1l20-29.4h-22.3l-12.1,18.7c-3.1,4.4-5.2,7.6-6.2,9.6V17.4h-20.5v65.8
	l20.5,25.6V63.2L179.3,59.6z"/>
<g>
	<g>
		<g>
			<g>
				<path class="st4" d="M142.8,254.9h-17.7v-1.7l7.5-7.9c2.1-2.2,3.6-3.9,4.4-5c0.9-1.2,1.5-2.3,1.9-3.3c0.4-1.1,0.6-2.2,0.6-3.3
					c0-1.7-0.6-3.1-1.7-4.1c-1.1-1.1-2.5-1.6-4.3-1.6c-2.4,0-4.6,0.9-6.8,2.6l-1-1.3c2.4-2,5-3,7.9-3c2.5,0,4.4,0.7,5.8,2
					c1.4,1.3,2.1,3.1,2.1,5.4c0,1.9-0.5,3.7-1.4,5.4c-0.9,1.7-2.7,3.9-5.2,6.5l-7.3,7.4v0.1h15.1V254.9z"/>
				<path class="st4" d="M165.4,254.9h-17.7v-1.7l7.5-7.9c2.1-2.2,3.6-3.9,4.4-5c0.9-1.2,1.5-2.3,1.9-3.3c0.4-1.1,0.6-2.2,0.6-3.3
					c0-1.7-0.6-3.1-1.7-4.1c-1.1-1.1-2.5-1.6-4.3-1.6c-2.4,0-4.6,0.9-6.8,2.6l-1-1.3c2.4-2,5-3,7.9-3c2.5,0,4.4,0.7,5.8,2
					c1.4,1.3,2.1,3.1,2.1,5.4c0,1.9-0.5,3.7-1.4,5.4c-0.9,1.7-2.7,3.9-5.2,6.5l-7.3,7.4v0.1h15.1V254.9z"/>
				<path class="st4" d="M187.1,233.3c0,1.8-0.6,3.2-1.7,4.4c-1.1,1.2-2.6,2-4.4,2.3v0.1c2.3,0.3,4,1,5.2,2.2
					c1.2,1.2,1.8,2.7,1.8,4.7c0,2.6-0.9,4.7-2.7,6.1c-1.8,1.4-4.4,2.2-7.8,2.2c-2.9,0-5.4-0.5-7.5-1.6v-1.9c1.1,0.6,2.3,1,3.6,1.3
					c1.3,0.3,2.6,0.5,3.8,0.5c2.9,0,5-0.6,6.4-1.7c1.4-1.2,2.1-2.8,2.1-4.9c0-1.9-0.7-3.3-2.2-4.3c-1.5-1-3.6-1.5-6.4-1.5h-3.1v-1.9
					h3.1c2.3,0,4.2-0.6,5.6-1.7c1.4-1.1,2.1-2.6,2.1-4.5c0-1.6-0.6-2.8-1.7-3.8c-1.1-0.9-2.6-1.4-4.4-1.4c-1.4,0-2.7,0.2-3.8,0.6
					c-1.2,0.4-2.5,1.1-3.9,2l-0.9-1.3c1.1-0.9,2.4-1.6,4-2.2c1.5-0.5,3.1-0.8,4.7-0.8c2.6,0,4.6,0.6,6,1.8
					C186.4,229.3,187.1,231,187.1,233.3z"/>
				<path class="st4" d="M193.3,242.8c0-3.7,0.5-6.8,1.5-9.3c1-2.5,2.4-4.4,4.3-5.6c1.8-1.2,4.1-1.8,6.6-1.8c1.2,0,2.3,0.1,3.3,0.4
					v1.7c-0.9-0.3-2.1-0.5-3.4-0.5c-3.2,0-5.7,1.1-7.4,3.4c-1.8,2.3-2.8,5.6-3,10h0.3c1-1.3,2.1-2.2,3.4-2.9s2.6-1,4-1
					c2.6,0,4.7,0.8,6.2,2.3c1.5,1.5,2.2,3.6,2.2,6.2c0,2.9-0.8,5.2-2.4,6.8c-1.6,1.7-3.7,2.5-6.3,2.5c-2.9,0-5.1-1.1-6.8-3.3
					C194.1,249.8,193.3,246.8,193.3,242.8z M202.6,253.6c2.1,0,3.8-0.7,4.9-2c1.2-1.3,1.8-3.2,1.8-5.7c0-2.2-0.6-3.9-1.7-5.1
					c-1.2-1.2-2.7-1.8-4.7-1.8c-1.3,0-2.5,0.3-3.7,0.9c-1.1,0.6-2,1.4-2.7,2.3c-0.7,1-1,1.9-1,2.9c0,1.4,0.3,2.8,1,4.1
					c0.6,1.3,1.5,2.4,2.6,3.1C200,253.2,201.2,253.6,202.6,253.6z"/>
				<path class="st4" d="M233.4,238.6c0,3.7-0.5,6.8-1.5,9.3c-1,2.5-2.4,4.4-4.3,5.6c-1.9,1.2-4.1,1.8-6.8,1.8
					c-1.3,0-2.6-0.2-3.7-0.5v-1.7c0.6,0.2,1.2,0.3,2,0.4c0.8,0.1,1.4,0.1,1.8,0.1c3.2,0,5.7-1.2,7.5-3.5c1.8-2.3,2.8-5.7,3-10.1
					h-0.2c-0.9,1.2-2.1,2.2-3.4,2.9c-1.3,0.7-2.7,1-4.1,1c-2.6,0-4.7-0.7-6.1-2.2c-1.5-1.4-2.2-3.5-2.2-6.2c0-2.8,0.8-5.1,2.4-6.9
					c1.6-1.8,3.7-2.6,6.3-2.6c1.9,0,3.5,0.5,4.9,1.5c1.4,1,2.5,2.4,3.2,4.3C233,233.8,233.4,236,233.4,238.6z M224.2,227.9
					c-2,0-3.7,0.7-4.9,2.1c-1.2,1.4-1.8,3.3-1.8,5.6c0,2.2,0.6,3.9,1.7,5.1c1.1,1.2,2.7,1.7,4.8,1.7c1.3,0,2.5-0.3,3.6-0.9
					c1.1-0.6,2-1.3,2.7-2.3c0.7-1,1-1.9,1-2.9c0-1.5-0.3-2.9-0.9-4.2c-0.6-1.3-1.4-2.3-2.5-3.1C226.8,228.2,225.6,227.9,224.2,227.9
					z"/>
			</g>
		</g>
	</g>
</g>
</svg>
